/* XPM */
static char *_8557_fd22889eebfdfcc3566b3266ea9858f0cae7d96c69234c0896e190cf045f0f93[] = {
/* columns rows colors chars-per-pixel */
"32 32 34 1 ",
"  c #608FE7",
". c #618FE7",
"X c #6290E7",
"o c #6793E8",
"O c #6F9AE9",
"+ c #789EE7",
"@ c #7CA2E9",
"# c #8BADEB",
"$ c #9BB5E7",
"% c #93B2EC",
"& c #97B5EF",
"* c #A5BBE4",
"= c #AABFE8",
"- c #B1C5EB",
"; c #AFC6F1",
": c #B5CAF3",
"> c #B6CCF4",
", c #C0CBDE",
"< c #DADADA",
"1 c #DDDDDD",
"2 c #C9D2E4",
"3 c #CFD8EA",
"4 c #D5DFF2",
"5 c #E0E1E1",
"6 c #E5E5E6",
"7 c #E8E8E9",
"8 c gray92",
"9 c #EEEFEF",
"0 c #F1F1F1",
"q c #F3F3F4",
"w c #F6F6F8",
"e c #F8F8F8",
"r c #FEFEFD",
"t c None",
/* pixels */
"ttttttttttttXXXXXXXXtttttttttttt",
"tttttttttXXXXXXXXXXXXXXttttttttt",
"tttttttXXXXXXXXXXXXXXXXXXttttttt",
"ttttttXXXXXXXXXXXXXXXXXXXXtttttt",
"tttttXXXXXXXXXXXXXXXXXXXXXXttttt",
"ttttXXXXXXXXXXXXXXXXXXXXXXXXtttt",
"tttXXXXXXXXXXXXXXXXXXXXXXXXXXttt",
"ttXXXXXX..            ..XXXXXXtt",
"ttXXXX.o$:>>>>>>>>>>>>:$oXXXXXtt",
"tXXXX.o*18rrrrrrrrrrrr8<*oXXXXXt",
"tXXX.o=5517wewwwwwwew7<<<*o.XXXt",
"tXXXo-775516qqqqqqqq6<<<15=oXXXt",
"XXX #998765,-899998-,<<1566# XXX",
"XXX %q09872+X=7887=X+,15678% XXX",
"XXX %wq093+ Xo*66*oX.+26789% XXX",
"XXX &eew4+ XXXo*$oXXX +389q% XXX",
"XXX &rr02+ XXXXXXXXXX +28qw% XXX",
"XXX &rw552+ XXXXXXXX @3760e& XXX",
"XXX &w55683@.XXXXXX.@40877w& XXX",
"XXX #55679q4O.XXXX.O4e09876# XXX",
"tXXXo*689qq;oXXXXXXo;ww098=oXXXt",
"tXXXXo=9qq;oXXXXXXX.o;ww0-o.XXXt",
"tXXXX.o-q;oXXXXXXXXX.o;w;o.XXXXt",
"ttXXXX.o#oXXXXXXXXXXX.o#o.XXXXtt",
"ttXXXXXX XXXXXXXXXXXXXX XXXXXXtt",
"tttXXXXXXXXXXXXXXXXXXXXXXXXXXttt",
"ttttXXXXXXXXXXXXXXXXXXXXXXXXtttt",
"tttttXXXXXXXXXXXXXXXXXXXXXXttttt",
"ttttttXXXXXXXXXXXXXXXXXXXXtttttt",
"tttttttXXXXXXXXXXXXXXXXXXttttttt",
"tttttttttXXXXXXXXXXXXXXttttttttt",
"ttttttttttttXXXXXXXXtttttttttttt"
};
