/* XPM */
static char *_8101_44c01d51711ce45fe9c9581354411dd8d1b1b6e2e51bc5a3f9f38fbcb3c57ab2[] = {
/* columns rows colors chars-per-pixel */
"64 64 77 1 ",
"  c #3B7BD7",
". c #3C7BD8",
"X c #467ED7",
"o c #447FDC",
"O c #487FD8",
"+ c #4680DE",
"@ c #4A81DC",
"# c #5586DE",
"$ c #5E8ADE",
"% c #618BDC",
"& c #4481E0",
"* c #4C84E0",
"= c #5487E0",
"- c #5689E2",
"; c #5E8BE1",
": c #618EE4",
"> c #6290E7",
", c #6492EA",
"< c #7B9CE2",
"1 c #6797F2",
"2 c #6897F4",
"3 c #6798F4",
"4 c #6999F6",
"5 c #699BF8",
"6 c #96ABD7",
"7 c #9BAEDA",
"8 c #9EB1DD",
"9 c #A2B3DE",
"0 c #B3BEDA",
"q c #86A6E7",
"w c #8DABE8",
"e c #A1B5E2",
"r c #A6B8E2",
"t c #ABBCE3",
"y c #ACBDE8",
"u c #B0BFE4",
"i c #B6C2DD",
"p c #AFC0EB",
"a c #B1C0E4",
"s c #BAC6E1",
"d c #BEC9E4",
"f c #B4C5EC",
"g c #BCCBEF",
"h c #D5D6D7",
"j c #D6D7D9",
"k c #D7D8D9",
"l c #DBDBDB",
"z c #E0DFDD",
"x c #E1E0DD",
"c c #C1CCE6",
"v c #C3CEE9",
"b c #C6D1ED",
"n c #C8D3EE",
"m c #DADEE5",
"M c #DBDFE8",
"N c #C3D1F1",
"B c #CCD7F2",
"V c #CED8F2",
"C c #DDE0E4",
"Z c #DDE1E9",
"A c #E4E4E3",
"S c #E8E7E6",
"D c #EAE9E6",
"F c #E5E6E9",
"G c #E7E8EB",
"H c #ECECEC",
"J c #F0EFEC",
"K c #F1F1EF",
"L c #EFEFF0",
"P c #EFF0F1",
"I c #F4F4F4",
"U c #F8F7F4",
"Y c #FAF9F6",
"T c #F7F7F8",
"R c #F7F8F8",
"E c #FCFCFC",
"W c None",
/* pixels */
"WWWWWWWWWWWWWWWWWWWWWWWWWW>>,>>>>>,>>>WWWWWWWWWWWWWWWWWWWWWWWWWW",
"WWWWWWWWWWWWWWWWWWWWWW,>>,54,,,,,,,,35,>::WWWWWWWWWWWWWWWWWWWWWW",
"WWWWWWWWWWWWWWWWWWWW,,4,,>>>>>>>>>>>>>,,34>:WWWWWWWWWWWWWWWWWWWW",
"WWWWWWWWWWWWWWWWW>,23::,>>>>>>>>>>>>>>>>>>>35>WWWWWWWWWWWWWWWWWW",
"WWWWWWWWWWWWWWWW,4,,>>>>>>>>>>>>>>>>>>>>>>>>,,4,WWWWWWWWWWWWWWWW",
"WWWWWWWWWWWWWW:3,>>>>>>>>>>>>>>>>>>>>>>>>>>>>>>,2,WWWWWWWWWWWWWW",
"WWWWWWWWWWWWW:3,>>>>>>>>>>>>>>>>>>>>>>>>>>>>>>>>>4:WWWWWWWWWWWWW",
"WWWWWWWWWWW:3,,:>>>>>>>>>>>>>>>>>>>>>>>>>>>>>>>>:,,3:WWWWWWWWWWW",
"WWWWWWWWWW>4>>>>>>>>>>:>:>>>:>,:>>:>:,::>>>:,:,>>>>>5:WWWWWWWWWW",
"WWWWWWWWW,5:>>,:>:>:>::>>>>>>:::>>>::>:>>:>>>:::>>>>>4,WWWWWWWWW",
"WWWWWWWW>4:,,:::>>:::>>::>>;::::>:::::>:>>:::>::>::>>>5>WWWWWWWW",
"WWWWWWW:4,>::>:>::::::::::::>:::::::::::::::>:::>>>>:>>4>WWWWWWW",
"WWWWWWW2:,>:>::>:::::::::::::::::::::%:::;:::::::::>>>>>2WWWWWWW",
"WWWWWW>,>:>:::::::;:::%:;::;:%%::;::;:%:::::%::::::::>:>,,WWWWWW",
"WWWWW>2>>::::::::%:::%:%::%:::%::%:%:%:::::%:::%:::::>>::4:WWWWW",
"WWWWW2>>>:::::;::$#=###########-#############=#::::::::>::4WWWWW",
"WWWW,,:>:::::$::#<<<<<<<<<<<<<<<<<<<<<<<<<<<<<<$;:::;:>>:>,,WWWW",
"WWW:4:>:>%:;::$$iZEEEEEEEEEEEEEEEEEEEEEEEEEEEEm0#$:%:::::::4WWWW",
"WWW,,>::>>;%$$#ixkZEEEEEEEEEEEEEEEEEEEEEEEEEEFhz0#$::;::>:>,>WWW",
"WWW4:>>:;:>:$#sAzzkZEEEEREEYEEEEEEEREEYEEEEEMkzkl0#$%:;;:::>4WWW",
"WW:3>>::>$:$#dSAlAlkZRRRYTTTRRRRRRRRRRETRRRZkkkkkz0#:%:::::>,>WW",
"WW>:::::;:$#dDAAAlAlkZRRTTTTTTIIIRTTIITUTTMklklkkkzi#::;::>:,,WW",
"W,5>::::>$#cHSSASAAlzkMIIIIIIIIIIIIIIIIIIMklkllkklzAi#$%::>:>5>W",
"W:,:::::%#bKHHFSAAAAllkMIKIKIIIIIKIIIIKImhlklkklzzzzDc$::;::>,>W",
"W::>>::%*fUHHHHSSAAAzlzkdIJLKHILJJJJLIKdhlhllhlllxAAAHy*::>>>>>W",
"W3:::>%>@nUIIHHHFSAAAzz7.aKHHHHHHHJHHKu.7llhhllzACASDJc*:%%:>:,W",
":5>:>%>:+bYILHLHHDFAAA7O%OuJHDHHHHHHJtX%O7llllzxAASFHKd*::::::5W",
">2,::>%%+nYIIIPHHHFFS8@%$%@tHHSHHGGHtO%$%@7lzlzxASSDHKc@%:::::4,",
">,,;::::+bEUIIIHHHHH8O%$$$%@tDADSSHt@%$$$%@7xlAAAFHHHIv+:;;:>:3:",
",,:>>;%:+nERRIIILHHeX%$$%$$:@tSAASr@%%$$$$%@9AAAFHHHHUb@:::::>,:",
">,>::;::+BERYIIIILeX%$$;$$;%:#rSAr@%:;:$%;$%O9DHHHHLHYb@%:::::,:",
">::::::%+nEEYRIIIeX%$$%;$::$%:*tr@::$%:;$%$$%O8HHHHIIEb@%:;:>>:,",
">>>>::::+VEEERRIm6#%$;;%;:%::::--::$:::$$$$$%O7mHLLIIEn+%::::::>",
">>>>::%%+VEEEERZlz8O%%$;::;;::::>:;::$;::$%%O9SAmLIIREB+%:%:>>,>",
">>>%:%>:oBEEEEZkzzA9O:;:;:::::::::::::>$:$%@rHDSAMIRREBo>:::>:,:",
">,>:>>%>oVEEEZllzAAGrO%:$:$:::::::::::%>:%+tLHGSSCZREEBo%::::,,>",
">4>>::;%oBEEZkxxAAFHJto::;:::>::::>:::$>:OyILHHHSFCZEEV&:::;::4,",
">4:>;:::oBEZkxCAASGHHIy*:%;:::>>>>:::;>$+fIILLHHFFSAZEV.>;::>:5W",
"W,:>::::+BHjxxAAGHHJJIIf-::::>:>>>>::::$fEIIIIHHHHSSAGB+%>::::,W",
"W>>>::::=9xmCAASHHHJIITEq-:::>>>>:>:::#wEERIILIHHHFSSSe=>%::,>,W",
"W>1:::::$$iCAASGHHLIIYEf=:::::>:>>>::%>;gEERIIIILHHHHs#%%>:;>,>W",
"W>4::::%:$#sSSHHJLIITEfo:::::>>>>:>:>:;:+gERTYIIKLHKs#::%>>:>4>W",
"WW,>>:::::$#sJHLLIITEfo::::>>>:>>>:>;>:::@gEERRIILKd#$:;>:::>,WW",
"WW>1:::::%:$#dKPIIYEfo::;::::>>>>>;>>::::>@gERRIIUg#;;:;:>:>1>WW",
"WWW4>>::;>$>$#vIIYEfo::%::::>>>>>>>>:;:;:%%+gEERYb@::%:::::>3WWW",
"WWW,,:,:>%>$>;#bYEf+:::::::>>>>>>>>>>>::::>%+bEEn@%:::::>:>,>WWW",
"WWWW4>::>>::%>:#Vgo:%:::::>::>>>>>>>>>:::;::>+NB@$>%:::::>>4WWWW",
"WWWW,,>:;>::>;>;--:::::::>>>>>>>>>>>>:>:::;>:$-;>>;>:::>::,,WWWW",
"WWWWW3::>:::::::::::::>:>>:>>>>>>>>>,::>>>:::::::::::>::>>3WWWWW",
"WWWWW,4::>>::>:::::::::::>>>>>>>>>>>:,:::>;:::::::>:::>>:4,WWWWW",
"WWWWWW>,>>>>>:::::::::,>>>>>>>>>,:,>,:>::>,::::>>::>>>:>,>WWWWWW",
"WWWWWWW2>>>:>:>:::,>>:::>>>>>>>>>>;,:,>>>:::>:::::>::>>>2WWWWWWW",
"WWWWWWW:4,>>>:>>::>:>>>>>>>>>>>>>>>>;,,>,:::::,:>::>>>>4:WWWWWWW",
"WWWWWWWW>4>>>>>>>>,:>>>>>>>>>>>>>>>>,:>>:,>,>>:,>>>>>:5>WWWWWWWW",
"WWWWWWWWW>4>>>>>>>>>>>>>>>>>>>>>>:>>:,>>,>>>>>>>>>>>,5>WWWWWWWWW",
"WWWWWWWWWW:4>>>>>>>>>>>>>>>>>>>>>,>>,:>>:>>>>>>>>>>>4:WWWWWWWWWW",
"WWWWWWWWWWW>4,>>>>>>>>>>>>>>>>>>>>,>>>>>>>>>>>>>>:,2>WWWWWWWWWWW",
"WWWWWWWWWWWWW>4>>>>>>>>>>>>>>>>>>>;,>>>>>>>>>>>,>3,WWWWWWWWWWWWW",
"WWWWWWWWWWWWWW:4,>>>>>>>>>>>>>>>>>>>>>>>>>>>>>>,2>WWWWWWWWWWWWWW",
"WWWWWWWWWWWWWWWW,4,,>>>>>>>>>>>>>>>>>>:,>>>,,,4>WWWWWWWWWWWWWWWW",
"WWWWWWWWWWWWWWWWWW>4,>>>>>>>>>>>>>>>>>>>:>>,4>WWWWWWWWWWWWWWWWWW",
"WWWWWWWWWWWWWWWWWWWW,>43,>>>,,>>>>>:>>>,34,>WWWWWWWWWWWWWWWWWWWW",
"WWWWWWWWWWWWWWWWWWWWWW>>,,53,,,>,,,345,,>>WWWWWWWWWWWWWWWWWWWWWW",
"WWWWWWWWWWWWWWWWWWWWWWWWWWW,,;>>>>:>,WWWWWWWWWWWWWWWWWWWWWWWWWWW"
};
