/* XPM */
static char *_2978_aecade67089e0bf32e464ed718b2de647eaae86b68d87bcedce3ec1ccbf3cbd3[] = {
/* columns rows colors chars-per-pixel */
"16 16 52 1 ",
"  c #618DE0",
". c #618DE1",
"X c #618EE2",
"o c #628EE2",
"O c #628FE4",
"+ c #6691E3",
"@ c #6792E3",
"# c #6290E6",
"$ c #6290E7",
"% c #6692E5",
"& c #A3AAB7",
"* c #A6ADBB",
"= c #A9AFBB",
"- c #ABB1BA",
"; c #ADB2BC",
": c #ADB4BF",
"> c #AFB4BE",
", c #B2B6BC",
"< c #B2B6BD",
"1 c #B4B8BE",
"2 c #B6B9BF",
"3 c #B9BABB",
"4 c #BDBEBF",
"5 c #B3B7C0",
"6 c #A6B7D7",
"7 c #A1B4D9",
"8 c #A6B9DE",
"9 c #ADBEDE",
"0 c #A5BFEF",
"q c #A4BFF1",
"w c #A5BFF1",
"e c #B1C6EF",
"r c #A7C1F2",
"t c #A9C2F2",
"y c #ABC3F2",
"u c #ACC3F0",
"i c #ABC4F2",
"p c #ACC4F0",
"a c #B2C9F3",
"s c #B8CDF4",
"d c #C1C1C1",
"f c gray77",
"g c #F4F4F4",
"h c #F4F4F5",
"j c #F4F5F5",
"k c gray96",
"l c gray97",
"z c gray98",
"x c gray99",
"c c #FDFDFD",
"v c white",
"b c None",
/* pixels */
"bbbbbb$$$$$bbbbb",
"bbbb$$$$$$$$bbbb",
"bb$$$$$$$$$$$$bb",
"bb$$$$$$$$$$$$bb",
"b$$73jhhhjk46$$b",
"b$8vldvvvvfgv9$$",
"$$xvv-;vv5&vvv%$",
"$$cv:XX=> O*vv@$",
"$$x2e$$o.$$p<v@$",
"$$1zvs$$$$avx,+$",
"b$0vvi$$$$rvvu#$",
"b$$wt$$$$$$qy$$b",
"bb$$$$$$$$$$$$bb",
"bb$$$$$$$$$$$$bb",
"bbbb$$$$$$$$bbbb",
"bbbbbb$$$$$bbbbb"
};
