/* XPM */
static char *_0367_216a490ccfa8bc0bc4e980177fec845f0630d1d5c975d90ac6b38df1244c8106[] = {
/* columns rows colors chars-per-pixel */
"128 128 62 1 ",
"  c #5C87D9",
". c #5E8ADD",
"X c #648EDE",
"o c #6690DF",
"O c #5F8BE0",
"+ c #618EE4",
"@ c #6290E7",
"# c #6893E3",
"$ c #7A9EE3",
"% c #85A2DA",
"& c #89A6DD",
"* c #8DA9DD",
"= c #90ABDE",
"- c #83A4E4",
"; c #89A7E0",
": c #92ADE1",
"> c #96B1E3",
", c #9BB4E3",
"< c #99B5EA",
"1 c #9FB8E9",
"2 c #A0B7E1",
"3 c #A3B9E2",
"4 c #A1BBEC",
"5 c #BDC7DA",
"6 c #BFCADD",
"7 c #AFC6EF",
"8 c #BFCBE2",
"9 c #B2C6EF",
"0 c #B5C9EF",
"q c #B8CAEE",
"w c #B9CCF1",
"e c #C2CCDD",
"r c #D7D7D7",
"t c #D5D8D7",
"y c #D9D7D8",
"u c #DBDBDB",
"i c #C3CEE3",
"p c #C6D1E3",
"a c #CAD2E4",
"s c #C5D2E9",
"d c #CBD5EA",
"f c #CDD8EC",
"g c #DFDFE1",
"h c #D2DBEE",
"j c #CED9F1",
"k c #D2DDF2",
"l c #E1DFE0",
"z c #DFE0E2",
"x c #D6E0F1",
"c c #D8E2F6",
"v c #E4E4E4",
"b c #E5E6E9",
"n c #E9E7EA",
"m c #E6E9EB",
"M c #ECECEC",
"N c #EDEEF1",
"B c #EFF1F2",
"V c #F4F4F4",
"C c #F4F7F8",
"Z c #F8F6F9",
"A c #FCFCFC",
"S c None",
/* pixels */
"SSSSSSSSSSSSSSSSSSSSSSSSSSSSSSSSSSSSSSSSSSSSSSSSSSSSSSSS@@@@@@@@@@@@@@@@SSSSSSSSSSSSSSSSSSSSSSSSSSSSSSSSSSSSSSSSSSSSSSSSSSSSSSSS",
"SSSSSSSSSSSSSSSSSSSSSSSSSSSSSSSSSSSSSSSSSSSSSSSSSS@@@@@@@@@@@@@@@@@@@@@@@@@@@@SSSSSSSSSSSSSSSSSSSSSSSSSSSSSSSSSSSSSSSSSSSSSSSSSS",
"SSSSSSSSSSSSSSSSSSSSSSSSSSSSSSSSSSSSSSSSSSSSSS@@@@@@@@@@@@@@@@@@@@@@@@@@@@@@@@@@@@SSSSSSSSSSSSSSSSSSSSSSSSSSSSSSSSSSSSSSSSSSSSSS",
"SSSSSSSSSSSSSSSSSSSSSSSSSSSSSSSSSSSSSSSSSSS@@@@@@@@@@@@@@@@@@@@@@@@@@@@@@@@@@@@@@@@@@SSSSSSSSSSSSSSSSSSSSSSSSSSSSSSSSSSSSSSSSSSS",
"SSSSSSSSSSSSSSSSSSSSSSSSSSSSSSSSSSSSSSSSS@@@@@@@@@@@@@@@@@@@@@@@@@@@@@@@@@@@@@@@@@@@@@@SSSSSSSSSSSSSSSSSSSSSSSSSSSSSSSSSSSSSSSSS",
"SSSSSSSSSSSSSSSSSSSSSSSSSSSSSSSSSSSSSS@@@@@@@@@@@@@@@@@@@@@@@@@@@@@@@@@@@@@@@@@@@@@@@@@@@@SSSSSSSSSSSSSSSSSSSSSSSSSSSSSSSSSSSSSS",
"SSSSSSSSSSSSSSSSSSSSSSSSSSSSSSSSSSSS@@@@@@@@@@@@@@@@@@@@@@@@@@@@@@@@@@@@@@@@@@@@@@@@@@@@@@@@SSSSSSSSSSSSSSSSSSSSSSSSSSSSSSSSSSSS",
"SSSSSSSSSSSSSSSSSSSSSSSSSSSSSSSSSS@@@@@@@@@@@@@@@@@@@@@@@@@@@@@@@@@@@@@@@@@@@@@@@@@@@@@@@@@@@@SSSSSSSSSSSSSSSSSSSSSSSSSSSSSSSSSS",
"SSSSSSSSSSSSSSSSSSSSSSSSSSSSSSSS@@@@@@@@@@@@@@@@@@@@@@@@@@@@@@@@@@@@@@@@@@@@@@@@@@@@@@@@@@@@@@@@SSSSSSSSSSSSSSSSSSSSSSSSSSSSSSSS",
"SSSSSSSSSSSSSSSSSSSSSSSSSSSSSSS@@@@@@@@@@@@@@@@@@@@@@@@@@@@@@@@@@@@@@@@@@@@@@@@@@@@@@@@@@@@@@@@@@SSSSSSSSSSSSSSSSSSSSSSSSSSSSSSS",
"SSSSSSSSSSSSSSSSSSSSSSSSSSSSS@@@@@@@@@@@@@@@@@@@@@@@@@@@@@@@@@@@@@@@@@@@@@@@@@@@@@@@@@@@@@@@@@@@@@@SSSSSSSSSSSSSSSSSSSSSSSSSSSSS",
"SSSSSSSSSSSSSSSSSSSSSSSSSSS@@@@@@@@@@@@@@@@@@@@@@@@@@@@@@@@@@@@@@@@@@@@@@@@@@@@@@@@@@@@@@@@@@@@@@@@@@SSSSSSSSSSSSSSSSSSSSSSSSSSS",
"SSSSSSSSSSSSSSSSSSSSSSSSSS@@@@@@@@@@@@@@@@@@@@@@@@@@@@@@@@@@@@@@@@@@@@@@@@@@@@@@@@@@@@@@@@@@@@@@@@@@@@SSSSSSSSSSSSSSSSSSSSSSSSSS",
"SSSSSSSSSSSSSSSSSSSSSSSSS@@@@@@@@@@@@@@@@@@@@@@@@@@@@@@@@@@@@@@@@@@@@@@@@@@@@@@@@@@@@@@@@@@@@@@@@@@@@@@SSSSSSSSSSSSSSSSSSSSSSSSS",
"SSSSSSSSSSSSSSSSSSSSSSS@@@@@@@@@@@@@@@@@@@@@@@@@@@@@@@@@@@@@@@@@@@@@@@@@@@@@@@@@@@@@@@@@@@@@@@@@@@@@@@@@@SSSSSSSSSSSSSSSSSSSSSSS",
"SSSSSSSSSSSSSSSSSSSSSS@@@@@@@@@@@@@@@@@@@@@@@@@@@@@@@@@@@@@@@@@@@@@@@@@@@@@@@@@@@@@@@@@@@@@@@@@@@@@@@@@@@@SSSSSSSSSSSSSSSSSSSSSS",
"SSSSSSSSSSSSSSSSSSSSS@@@@@@@@@@@@@@@@@@@@@@@@@@@@@@@@@@@@@@@@@@@@@@@@@@@@@@@@@@@@@@@@@@@@@@@@@@@@@@@@@@@@@@SSSSSSSSSSSSSSSSSSSSS",
"SSSSSSSSSSSSSSSSSSSS@@@@@@@@@@@@@@@@@@@@@@+++@@+@@+@+@++++@+@@@@@@+@@@@+@@+@+@+@@@@+@++@@@@@@@@@@@@@@@@@@@@@SSSSSSSSSSSSSSSSSSSS",
"SSSSSSSSSSSSSSSSSSS@@@@@@@@@@@@@@@@@@@@@+@@++++++@@+@++@@++@@+@@@@@@+@+@@+@+@@++++@@@+@@@@@@++@@@@@@@@@@@@@@#SSSSSSSSSSSSSSSSSSS",
"SSSSSSSSSSSSSSSSSS@@@@@@@@@@@@+@@@@+@@@@@++@@+@@+@@+@+@++@+@+@@@@@@+@@+@+@+++@@@@@+@+@@++@++@@@@+@@@@@@@@@@@@@SSSSSSSSSSSSSSSSSS",
"SSSSSSSSSSSSSSSSS@@@@@@@@@@@@@@+++@@@+++++@+@+@+@@@+++@++@+++++++@+@++@+@++@@+++@++@+@++@+@@@++@@@@++@@@@@@@@@@SSSSSSSSSSSSSSSSS",
"SSSSSSSSSSSSSSSS@@@@@@@@@@++@++@@+@++++++@++@+++++++@++@@++@+++++++++++++@@++++++@++@++@@++@@@@+@++@@+@@@@@@@@@@SSSSSSSSSSSSSSSS",
"SSSSSSSSSSSSSSS@@@@@@@@@@+@@+@@@+@@++@++@+@+++@+++@+++@+++@++++++@++++@+++++@++++@++@+@++++@+++@@@@@@@+@@@@@@@@@@SSSSSSSSSSSSSSS",
"SSSSSSSSSSSSSS@@@@@@@@++@@+@@+@++@++@+++++++++++++++++++++++++++++++++++++++++++++++++++@+++++++++@++@@@@@@@@@@@@@SSSSSSSSSSSSSS",
"SSSSSSSSSSSSSS@@@@@@+@@@+@@@++@+++++++++++++++++++++++++++++++++++++++++++++++++++++++++++++++++++++@@@@+@@@@@@@@@SSSSSSSSSSSSSS",
"SSSSSSSSSSSSS@@@@@@+@@++@+++++++++++++++O@OO+O++++OOO++O+OO+@O++++++O++O+OO++OO++++++OO+++++++++@+++++++@++@+@@@@@@SSSSSSSSSSSSS",
"SSSSSSSSSSSS@@@@@@+@+@+@+@+@++++++++++++++O+O++.+X+OO+O+O+OOO@OO+.O++O+OO++O++.+ ++XO+O+O+O+++++++++++@+@@@+@@@@@@@@SSSSSSSSSSSS",
"SSSSSSSSSSS@@@@@@@@@+@@@+++++++++.+++.O++.+O+OO+++XO+O+O+O+OOOO@+++.O+O++O+O.++O++X++O+O+O+OO+O+++++@+@++@+@+@+@@@@@@SSSSSSSSSSS",
"SSSSSSSSSSS@@@@+++@+++++++++++++++.+@.+O+++.++.+O+O+OOOOOOOOOOOO.OOOOOOO.OOO++++++++++++O++O+O+O+O+++++++++@@++@@@@@@SSSSSSSSSSS",
"SSSSSSSSSS#@@@@+@@@@+++++++++++++++..+O+.O.+OOOOOOOOOOOOOOOOOOOO.OOOOOOOOOOOO.OO+  ++ + +OO+O+O+O+O+++++@+@++@@@@+@@@@SSSSSSSSSS",
"SSSSSSSSSS@@@++@@++++++++++O+OXO+.+++.+OOOO.+..OOO+.OOOOOOOOOOOOO+.OOOOOO+..OOO.O+ +  ++OOOO++OO+OX++++++++++@@++@@@@@SSSSSSSSSS",
"SSSSSSSSS@@@+@@+@@@+++++++O+O+O++O.OOO.OOO.O..+.+..O..OOO............O.....+.O.+ ++ +O+ .OOO.OO+O++X+++++++@++@+@@+@@@@SSSSSSSSS",
"SSSSSSSS@@@@@@@++++++++O+O+OO+OOOOOO++X...+X....+X....+X....X......+..X+..X+..X+..X+..X+.OX+X XXO++O+O+O++++++@@++@+@@@@SSSSSSSS",
"SSSSSSSS@@@@@+@@++@+++++O++OOOOOOo$$$$$$$$$$$$$$$$$$$$$$$$$$$$$$$$$$$$$$$$$$$$$$$$$$$$$$$$$$$$X + OOO+O+O+++++++@@+@@@@@SSSSSSSS",
"SSSSSSS@@@@@@++++++++++O+O+OOO.Xo6fAAAAAAAAAAAAAAAAAAAAAAAAAAAAAAAAAAAAAAAAAAAAAAAAAAAAAAAAAAfeoOO OO++OO+++++++@++@@@@@@SSSSSSS",
"SSSSSSS@@@@@+@@+++++++O+O+OOO.Xo6uufAAAAAAAAAAAAAAAAAAAAAAAAAAAAAAAAAAAAAAAAAAAAAAAAAAAAAAAAfureXXOOOOO++O+.++++++@+@@@@@SSSSSSS",
"SSSSSS@@@@@+@++++++O++O++.OO.Oo6uuuufAAAAAAAAAAAAAAAAAAAAAAAAAAAAAAAAAAAAAAAAAAAAAAAAAAAAAAfurur5X..OOOO++.+++++@++@+@@@@@SSSSSS",
"SSSSSS@@++@@@++@++O++.++OOOO.oeuugguudAAAAAAAAAAAAAAAAAAAAAAAAAAAAAAAAAAAAAAAAAAAAAAAAAAAAfururuy5XXOOOO.+++.+++@++@++@@@@SSSSSS",
"SSSSS@@@@@+@++++++O+.+OOOOO.oevzgguuuuaAAAAAAAAAAZAAAAAAAAAAAAAAAAAAAAAAAAAAAAAAAAAAAAZAAauuururyy5X.OOO+++.++.@++++@+@@@@@SSSSS",
"SSSSS@@@@+@+@++++O++.++OO..o8vzzguguuuudAAAZAZAAAAAVAAAAAAZAAAZAAZAAZAAZAZAAVAAAAZAAZAAZdurururuyuy5X.OO..+++.+++++@+@@@@@@SSSSS",
"SSSSS@@@+@++@+++++..+.O.. otvvlllzzuluuudZAZAAAVVAAVAAAVAVAAVAAAZAZAZZAVAAVAAZAVZAZAZZAarururuururureo o..++.@+++++@+@@@@+@SSSSS",
"SSSS@@++@+@+++++++++.+OO.opvvvvvvzzuluuuudZZCVVAAAVAAVAVAAVVAAVVZZZZVAVAVAAVZZAVZZZZVAauururrrruyurut6o ..+.@..+++++++++@+@@SSSS",
"SSSS@@@@++@@+++++.+.O+..oavvvvvlzluzuuluuuaCVVAVAVAVVVAAVVVAVAVACZZZVAAVAVVAVVAACZZZVpuururuururruuyugeo.+.O.@@.+++++@@@++@@SSSS",
"SSS@@@+@+@+++++++.++O..oamMvMvvvvvvllluluuusACAVVVVAVAVVAVAVVVVVCVVZVVZVZVZVVAVVCVVZauutururruruuruuuugeo.O..@.@++++++++@++@@SSS",
"SSS@@@+++++++++X.+.O.XoxMMmmvMvvvvvlggguluuuaVVVVVVVVVVVVVVVVVVVVVVVVAVVVVVVVVVVCVCpuutururuututruuulgggeo.OOO@.+O++@++@@@@@@SSS",
"SSS@+@+@+++++++++++..ofMMmvvvMvvvlvlggguuuuuupVVVVVVVVVVVVVVVVVVVVVVVVVVVVVVVVVVVVprtuurtuurtuttuuuugglgliooOO.@X++++++@++@+@SSS",
"SS@@@@+++++++OXO+..oofMMMMMMMvvvvvvvlvlgluguuuaVVVMVVVMVVVVVVVVVVVVMVVVVVVVVVVVVVprururuurutuuuuuuuuglllvvpo..@.O+O+++++@@+@@@SS",
"SS@@@@++++++++O++..ohMMMMMMMvMMMvvvlvvlllguuuuupMVVVVVVVMVVVVVMVVVVVMVVVVMVMVVBBpyurururruruutuuuuuvllvvvvva@..@+OO+++++@+@@@@SS",
"SS@@@@++++++OO+OOO#hNBMMMMMMMMMvMvvvvvvlzluuluuupBBBMMVBBMVVMVVMMVMVMVMVMVVMVMVerururuurururuuuugullvvvvvvvnaXOOO+O++++++@@@@@SS",
"SS@@@@@@++++O+O+OO-VVBVBVMMMMMvMvMvvvvvvzlzuluut$7BMBBVMBBMBMMMVVMVMVMVMVMMVMV3%ttururrururuuuuuugllvvvvnvMnn-OO+O+O+++++@@@@@SS",
"S@@@+@+++++++O+OOO-VVVBMMMMMMMMvMMvvvvvlvzvzuuu%  5vVMMMBMMBVMVMMMMMMVVMMMVMM7  %tturrururuuuululllvvvvvvMnnM-.O.+O+.++++@@@+@@S",
"S@@@@@@++++OO+OOOO-VVVVVVMVVMMMMMvvMvvvvvvuuzu%    2MBMMMBMMMMMMMVMMMMMMMMMM2    *ttutrururuuuullllvvvvMvMnMM$+.OO+O+++++@@@+@@S",
"S@@@++@+++++O++O.+;VVVVVVMMMVMMMMvvMMvvvvvvvu$  .   5mMMMMMMMMMMMMMMMMMMMMM3      %tuttuurululllvzvvvvMvMMMMM-.OO+@.@@+++@+@@@@S",
"S@@+@@+++++O+O+OO.-VVVVVVVVMMMMMMMMvvMvvvvvu* .      2mmMMMMMMMMMMMMMMMMMM2      . %tuutuuuuulllvvvvvMvMMMMMM-+.OO.@@O++++@@+@@S",
"S@@@@@@+++O+O+OO.+-CZVVVVMVMMVMVMMMMMvMvvvz&   ... .. 7vMMMMMMMMMMvMMMMMM2.        .&tuuuuuuvuvlvvvvMvvMMMMMN%OOOO@...@+++@++@@S",
"S@+@+@+++++O+OO+..&ZZVVVVVVVVMMMMMMvMMvMvv%.  . . . .  2vMvMvvvMMMMvvMvv,  X X  . .  %tuuulllvvvvvvmvMMMMMMMN$..OO.@@+@++@@+@@@S",
"#@@@@+++++++O+  ..-ZCVVVVVVVVMMVMMMMMmmmv&  . ....... ..3mvmvMvvvMmvmmm, . ...... ..  %tuulllvvvvMvMMvMMMVMMV%.O.O+O+O+++++@@@@@",
"@@@@+@@++++++O+O+.;ZAZACVVVVVMVMBMBMMmmv& . .............3vvvvvMvvvmvv2............  O *uuvllvvvvvvMMMMMMMMVN%.OOOO+OO+++@@++@@@",
"@@@++@+@+++XO+OOO.-ZVAAZAVVVVVVVMMMMMMm& . .......X  .O O.3vvvvmvmvvv,.OO...O.........  =llvvvvvMMvMMMMBMVVVV- .OO+O+O+X++@@@@@@",
"@@+@@@++++++++OO..-AAACZVVVVVVVVVVMBMm&.. ...O..O..XXOOOOO 3vvvvvvvv, ..O.OO..OO....O .. *lvvvvMvMMMMMMMMVMBV-.XOOO+O++++@+@++@@",
"@@@@+@+++++OO+OOO.-AAAAZAVVVVVVVVMMMM*. . .....OOOOOOOOOOOOX2vvzvvl,O.OOOOO.OOO..O...XX   =lvvMvvMMMMMBMBBVVN-.+OO++++++@+@@@@@@",
"@@+@@+@++++++OOOO.-AAAAZAAVAAVVVVVBM;  .......O.OOOOOOOO.OOO.2vzvv>X.OOOOOOOOOOOOOO..  . . =vvvMMMMMBMMVNVVVV-..OO+OX++++++++@@@",
"@@@@@+++++X+O+++..-AAAAAZZZVVVVVVVM*   .  ..O.+OOOO.OOOOOOOO.O3zv> X.OOOOOO++OOO.OO ...  .  =MMMMMVMVMVVVVVVZ-OO.OO+++++++@@@@@@",
"@@@++@@++++ + O O.-AAAAAAZAVAVVVVM*   . .....O.OOOO++O+O+O+O+O.2>OOO+O++O+O+OOOOOO.X.. ..    =vMMMMMMMVBVVVVZ-..OO+.+++++@+@++@@",
"@@@@+@@++++OO+OOOX-AAAAAAVAZVCCVBi* .   ....OOOOOOX++O++O+OOO+OO.O+OO+OO+OO+OO+OOOO+... ..   %emMMMBVVVVVZVZZ&..++.+++++++@@++@@",
"@@@@@@++++++++OO.+-AAAAAAAAZAZCVpuy*  . ...OOOOOO+O+O+OO+O++OO+OO+.++OO++oO+O++OOOO..... .  &gvpMNVMVMVVVVZZC&...+.+.+++++++@@@@",
"@@+@++@++++OO+OOO.-AAAAAAAAZAVCpuuuu*  X ....OOO+++.+OO+O+XO++++O++++O.++O+OO+O+OOO......  &vvvviMBBVVVVCZCAA- +.+++O++++++@@@@@",
"@@+@+@++++O++.OOO.-AAAAAAAAAAZauuuulu* .....OOOO+.+.+++++O++O+++++++++++O+O++O+OOOOO.... .*vMvvvlpNBVVVVZZZZA-..O.+.+O++++@+@@@@",
"@@@@@+@@O++.O+.O..-AAAAAAAAAZauullllll= .....OOO++.++++O@++++++O+++++++O+.++O+.+OOOO.....*vmmnvvvvpBVVVAZAAAA-.OO+++.++++@@+@@@@",
"@@@@++++++++++O.+.-AAAAAAAAAauuuluglvvv:. ..OOOO.+++O@++O++++++++++++++++++++O.+OOO.....>mMmvnMvvvgpVVZZZAAAA-..O..+O+++@++@@@@@",
"@@@@+@+++++O+.+..X-AAAAAAAAduuuzgglvvvvv:....OOO.X +@O++++++@+@++++++++++++O.+++OO.....=MMMMMvMvmvvvpBZAAAAAA-OOOO+O+O++++++@@@@",
"@@@+@@++++O+O+O.O+-AAAAAAAduuulullvvvnnbb:.OOOOO+++++O++++++++++++++++++++O++++.OOOX..,BMMMMMMvMmvvvvtCZAAAAA-...+O+O+++O@@@@@@@",
"S@@+@@+@+++++..+O.-AAAAAAauuuzgzlvvvMvMMnM=X XOO++OOO+++++@++@+++++@+@@+++++++O+.O...<BMVMMMMMMvvvMvvvpZAAAAA-+.OO++++++@@++@+@S",
"S@@@+++++++.+++.O.-AAAAAtuuuuvggvvvvvMMMMMB,..OO+ X+O++++@++++@+@@+++++@++++OOOO@.O.<BVBMVMMMMMMMvMvMvvpZAAAA-+XOO..++++++@++@@S",
"S@@@+@@+++++..++O+-AAAAduuuzuvvvvvvmvMMMNVMM:OOO+ ++O+++++++@@@@+@+@@++++++++o+OOOX,VVVBVMMVMMMMMMvvvvvvaAAAA-.OO+++++++++@@+@@S",
"S@@@@++@+++++++.O.-AAAduuuluzzvvvmMvMMMMMMVVV<OO+++++++++@+@@++@@++@@+@++++.+OO+O.1AVVVBVVMVMMMMMvMMvMvvvaAAA-OO.+.++++++@@@@@@S",
"S@@+++@+++++O++O.+-AAduuuuzlllvvvMMMMMMMMVBVVV<OO+O+O+++++@++@@@++@+@+@@+++O+++.o1CVVAVVVMVMMVMMMvMvvMvvvvpAA;OOO+O++++++@+@+@@S",
"S@@@+@@++++.+O+.+@-AduulllzvvvMvvvMMMMMBNBVVVCZ<+O+O+++++@@@@@@#+@@++++++++++.++3AAVVVVVVVVVVMMMMMMMMvvMvvvpA-OO+O+O++++++@@@@@S",
"SS@+@++@@@++O+O+.O-auuulzlvvvvvvMMMMMMBBVVVVCZZZ<+O+O++++++@+@@+@@@@+@++++++++.4AAAVAVVVVVVVVMVMMMMMMMvvvvvva-OO@.O@++++@+@++@SS",
"SS@@@@++O@++@O++OOX5guulllvvvvMvMMMMMVMVVVZVZZZA4O+O++++++@@+@@+@@@@@+++++++.++0AAAAAAVVVVVVVVMMMMMMMvMvmnvv8#OO.@OO++++@@@+@@SS",
"SS@@@@+++++++++++.Oo6uzzzvvvvMvMMMMMVMVVVVVAVAA3O+O+++++++@@@@+@++@+@@@++++O+OOO7CAACCCCVVVVVVMVVMMMMnmmmvv8@OOO@.@+++++@@++@@SS",
"SS@@++@@+@+++++X+.O.O6vzvvvvvMMMMMVMMVVVVVVAAA1X+O+++O++++@++@@@@@++++@++++++++OO7AAAAAAAVVVVVVVVMVBMMMmnmi@.OO+.@.+++++@@X@@@SS",
"SSS@+@+@@@+++++X.+O.O.6zvmmvvMMMMMMVVVVVAVAVC7..++O@++++@++@@+@@@@@@@@@++++++O++O.0CAVCAVZAVVVVVMVMMMMMmMiX.XO+O+++@+++@@@@@@SSS",
"SSS@@@++++++++++++O+OOo8vvvmMMMMVMMVVVVVVAAA1..+OO+O+++++@+++@@@@@@+@@@+++++O+OO+OO0AAAAAAVVVVVVMVVMBMMMpX.OOOO+..+++++@@@@@@SSS",
"SSS@@@@@+@++++.++O+.OO.XpvmMMMMVMVVVVVVACAA1OOO+O+O@+++++@@++@@@@@@@@@+@@++++++O@OOO0AAAAVAVZVVVVVMVMNMp..OOOO+O@++++++@+@@@@SSS",
"SSSS@@@@@+++++++O+O+OOOOoamMMMMBMVVVAVVAAA1.OOO++O++++@++@@@@@@@@@@+@+++++++++O+OOOOX9AAAZVAAVVCVVVVVBso.OOO+OO+++++++@@@+@@SSSS",
"SSSS@@+@+++++++O+O+OOOOOXopMMBMMVVVVVVAVA1.OO.+OO+O++++@@@+@@@@@@@@@+@@++++++O+OO@..O.0AAAAZVACVVVMVBsXOOOOOO++O.+++++@@++@@SSSS",
"SSSSS@@@+@++++++++O+OOOO..odMBVVVVVVVAAA1.OOO+O++O++++++@+@@@@@@@@@@@++@+++++++O@.@OO..0AAAAAVAVVVVVsXOOOOOOO+O++++++@@@+@@SSSSS",
"SSSSS@@@@@+@+++++++.++OOOO.ofBBVVZCCCCC4OOO+++.++O+++++@@O@O@@@@@@@@++@++@++O@O+.@.@+.O.0AAAACZVVVVd+OOOOOO+O+O+++@++@@+@@@SSSSS",
"SSSSS@@@@@+@+@++++++OO+OOOOOofVVVVVZAA4OOO.O.++++++++++@@@@@@@@@@@@@@@+@@++@@O@O@.@...OO+0AAAZACAVf+X.OOO++O+O++++++@+@@+@@SSSSS",
"SSSSSS@@@+@@+++++++++OOOOOO.XofCZZCAA1.OOO++O+O+++++++@+@@@@@@@@@@@@@+@@+@@+@@O@@..@++.++.qAAAACZfX..OO+OO++O++++++@+@+@@@SSSSSS",
"SSSSSS@@@@@+@@@+++++++O+O++OO.oxZZCC7.OO+O+O+O+O+++++@@@@@@@@@@@@@@@@@@@++@+O@@O++@..++..+.0AAAAho+.OO+OOOXX+++++@+@+@@@@@SSSSSS",
"SSSSSSS@@@@+@++@@++++.++++O+++.oxAA7.O++O++OO++++++@+@@++@@@@@@@@@@@@@@@@+O@@OO@+.++.++++..+0AAf#OO.++O+++++++@+++@@@@+@@SSSSSSS",
"SSSSSSS@@@+@+@@++++++++.O++O.+++oc1 +O+.+OO+++++@+++@+@@@@@@@@@@@@@@@@@@+@@@@@@O@@+..+.+++++@wx@O.@@+O+O+++++++++@@++@@@@SSSSSSS",
"SSSSSSSS@@@+++++++++++++++O+.++++.++O++OO++O++O++@+@+@@+@@@@@@@@@@@@@@@@#@@@@@@@++++++++++...@@+O++O+OO++++++++++@@+@@@@SSSSSSSS",
"SSSSSSSS@@@@@@+@++++++++++.+++..+++.++O+O+++++++++@+@+@+@@@@@@@@@@@@@@@@#@@@@OO@+++++++.+.++@.o.+O.@O+O++++++@+@@@+@@@@@SSSSSSSS",
"SSSSSSSSS@@@@@@@@@++++++++++++++++++++OO++++++@+@@@@@@+@@@@@@@@@@@@@@@@@@@@@@+@++++++++++.+++++++++++++O+++++@@@++@+@@@SSSSSSSSS",
"SSSSSSSSSS@@@@@@@+@@++++++++++++++++X+++++++++++@+@@@@@@@@@@@@@@@@@@@@@@@@@@@@+@++++++++++++++++++++++++++@++@+@@@@@@@SSSSSSSSSS",
"SSSSSSSSSS@@@@@@@++@++++++++++++++++O+++++++@++@@+@@@@@@@@@@@@@@@@@@@@@@@@@@+@+@@+++++@+++++++++O++++++++@+@@@@+@@@@@@SSSSSSSSSS",
"SSSSSSSSSSS@@@@@@@@+@@@+++@+++++++++++++++++++@++@@+@@@@@@@@@@@@@@@@@@@@@@@@@@@+@@@+++++++++X+++++++++++++@@+@+@@@@@#SSSSSSSSSSS",
"SSSSSSSSSSS@@@@@@++@+@@@@+@+++++++@@@++@+++@++@@@@O@@@@@@@@@@@@@@@@@@@@@@@@@@@@@@+@@++++++++++++++@@+++@+@@+@+@@@@@@@SSSSSSSSSSS",
"SSSSSSSSSSSS@@@@@@+@++@@@@+++++++++++@++@+@@+@+@@@@@@@@@@@@@@@@@@@@@@@@@@@@@@@+@@@@+@@@@++++++@++++O++@@@@+@@+@@@@@@SSSSSSSSSSSS",
"SSSSSSSSSSSSS@@@@@@@@@+@@@+@@+@@@@@++@+@++@@@@@+@@@@@@@@@@@@@@@@@@@@@@@@@@@@@@@@+++@@+@@+@++@@+@@@+@@@@@@+@+@@@@@@@SSSSSSSSSSSSS",
"SSSSSSSSSSSSSS@@@@@@@+@@@@@++@+++@++@++@@@@+@+@@@@@@@@@@@@@@@@@@@@@@@@@@@@@@@@@@@@@++@@@@+@++@@+@@@@@@@@+@@@@@@@@@SSSSSSSSSSSSSS",
"SSSSSSSSSSSSSS#@@@@@@@@@@@@++@++@@@@@@@+@@@@@@@@@@@@@@@@@@@@@@@@@@@@@@@@@@@@@@@@@@@@@+@+@@@+@@@@+@++++@+@@@@@@@@@@SSSSSSSSSSSSSS",
"SSSSSSSSSSSSSSS@@@@@@@@@@@@+@++@@@@@@+++@@@@@@@@@@@@@@@@@@@@@@@@@@@@@@@@@@@@@@@@@@@@@@@+@@@@@++@@++@@@@@@@@@@@@@@SSSSSSSSSSSSSSS",
"SSSSSSSSSSSSSSSS@@@@@@@@@@@@@@@@@@@@@@@@@@@@@@@@@@@@@@@@@@@@@@@@@@@@@@@@@@@@@@@@@@@@@@@@@@@@@@@@@@@@@@@@@@@@@@@@SSSSSSSSSSSSSSSS",
"SSSSSSSSSSSSSSSSS@@@@@@@@@@@@@@@@@@@@@@@@@@@@@@@@@@@@@@@@@@@@@@@@@@@@@@@@@@@@@@@@@@@@@@@@@@@@@@@@@@@@@@@@@@@@@@SSSSSSSSSSSSSSSSS",
"SSSSSSSSSSSSSSSSSS#@@@@@@@@@@@@@@@@@@@@@@@@@@@@@@@@@@@@@@@@@@@@@@@@@@@@@@@@@@@@@@@@@@@@@@@@@@@@@@@@@@@@@@@@@@@SSSSSSSSSSSSSSSSSS",
"SSSSSSSSSSSSSSSSSSS@@@@@@@@@@@@@@@@@@@@@@@@@@@@@@@@@@@@@@@@@@@@@@@@@@@@@@@@@@@@@@@@@@@@@@@@@@@@@@@@@@@@@@@@@@SSSSSSSSSSSSSSSSSSS",
"SSSSSSSSSSSSSSSSSSSS@@@@@@@@@@@@@@@@@@@@@@@@@@@@@@@@@@@@@@@@@@@@@@@@@@@@@@@@@@@@@@@@@@@@@@@@@@@@@@@@@@@@@@@@SSSSSSSSSSSSSSSSSSSS",
"SSSSSSSSSSSSSSSSSSSSS@@@@@@@@@@@@@@@@@@@@@@@@@@@@@@@@@@@@@@@@@@@@@@@@@@@@@@@@@@@@@@@@@@@@@@@@@@@@@@@@@@@@@@SSSSSSSSSSSSSSSSSSSSS",
"SSSSSSSSSSSSSSSSSSSSSS#@@@@@@@@@@@@@@@@@@@@@@@@@@@@@@@@@@@@@@@@@@@@@@@@@@@@@@@@@@@@@@@@@@@@@@@@@@@@@@@@@@@SSSSSSSSSSSSSSSSSSSSSS",
"SSSSSSSSSSSSSSSSSSSSSSS@@@@@@@@@@@@@@@@@@@@@@@@@@@@@@@@@@@@@@@@@@@@@@@@@@@@@@@@@@@@@@@@@@@@@@@@@@@@@@@@@@SSSSSSSSSSSSSSSSSSSSSSS",
"SSSSSSSSSSSSSSSSSSSSSSSSS@@@@@@@@@@@@@@@@@@@@@@@@@@@@@@@@@@@@@@@@@@@@@@@@@@@@@@@@@@@@@@@@@@@@@@@@@@@@@@SSSSSSSSSSSSSSSSSSSSSSSSS",
"SSSSSSSSSSSSSSSSSSSSSSSSSS@@@@@@@@@@@@@@@@@@@@@@@@@@@@@@@@@@@@@@@@@@@@@@@@@@@@@@@@@@@@@@@@@@@@@@@@@@@@SSSSSSSSSSSSSSSSSSSSSSSSSS",
"SSSSSSSSSSSSSSSSSSSSSSSSSSS@@@@@@@@@@@@@@@@@@@@@@@@@@@@@@@@@@@@@@@@@@@@@@@@@@@@@@@@@@@@@@@@@@@@@@@@@@SSSSSSSSSSSSSSSSSSSSSSSSSSS",
"SSSSSSSSSSSSSSSSSSSSSSSSSSSSS@@@@@@@@@@@@@@@@@@@@@@@@@@@@@@@@@@@@@@@@@@@@@@@@@@@@@@@@@@@@@@@@@@@@@@SSSSSSSSSSSSSSSSSSSSSSSSSSSSS",
"SSSSSSSSSSSSSSSSSSSSSSSSSSSSSSS@@@@@@@@@@@@@@@@@@@@@@@@@@@@@@@@@@@@@@@@@@@@@@@@@@@@@@@@@@@@@@@@@@SSSSSSSSSSSSSSSSSSSSSSSSSSSSSSS",
"SSSSSSSSSSSSSSSSSSSSSSSSSSSSSSSS@@@@@@@@@@@@@@@@@@@@@@@@@@@@@@@@@@@@@@@@@@@@@@@@@@@@@@@@@@@@@@@@SSSSSSSSSSSSSSSSSSSSSSSSSSSSSSSS",
"SSSSSSSSSSSSSSSSSSSSSSSSSSSSSSSSSS@@@@@@@@@@@@@@@@@@@@@@@@@@@@@@@@@@@@@@@@@@@@@@@@@@@@@@@@@@@@SSSSSSSSSSSSSSSSSSSSSSSSSSSSSSSSSS",
"SSSSSSSSSSSSSSSSSSSSSSSSSSSSSSSSSSSS@@@@@@@@@@@@@@@@@@@@@@@@@@@@@@@@@@@@@@@@@@@@@@@@@@@@@@@@SSSSSSSSSSSSSSSSSSSSSSSSSSSSSSSSSSSS",
"SSSSSSSSSSSSSSSSSSSSSSSSSSSSSSSSSSSSSS@@@@@@@@@@@@@@@@@@@@@@@@@@@@@@@@@@@@@@@@@@@@@@@@@@@@SSSSSSSSSSSSSSSSSSSSSSSSSSSSSSSSSSSSSS",
"SSSSSSSSSSSSSSSSSSSSSSSSSSSSSSSSSSSSSSSSS@@@@@@@@@@@@@@@@@@@@@@@@@@@@@@@@@@@@@@@@@@@@@@SSSSSSSSSSSSSSSSSSSSSSSSSSSSSSSSSSSSSSSSS",
"SSSSSSSSSSSSSSSSSSSSSSSSSSSSSSSSSSSSSSSSSSS@@@@@@@@@@@@@@@@@@@@@@@@@@@@@@@@@@@@@@@@@@SSSSSSSSSSSSSSSSSSSSSSSSSSSSSSSSSSSSSSSSSSS",
"SSSSSSSSSSSSSSSSSSSSSSSSSSSSSSSSSSSSSSSSSSSSSS@@@@@@@@@@@@@@@@@@@@@@@@@@@@@@@@@@@@SSSSSSSSSSSSSSSSSSSSSSSSSSSSSSSSSSSSSSSSSSSSSS",
"SSSSSSSSSSSSSSSSSSSSSSSSSSSSSSSSSSSSSSSSSSSSSSSSSS@@@@@@@@@@@@@@@@@@@@@@@@@@@#SSSSSSSSSSSSSSSSSSSSSSSSSSSSSSSSSSSSSSSSSSSSSSSSSS",
"SSSSSSSSSSSSSSSSSSSSSSSSSSSSSSSSSSSSSSSSSSSSSSSSSSSSSSSS@@@@@@@@@@@@@@@@SSSSSSSSSSSSSSSSSSSSSSSSSSSSSSSSSSSSSSSSSSSSSSSSSSSSSSSS"
};
