<?xml version="1.0" encoding="UTF-8" standalone="no"?>
<!DOCTYPE svg PUBLIC "-//W3C//DTD SVG 1.1//EN" "http://www.w3.org/Graphics/SVG/1.1/DTD/svg11.dtd">
<svg width="100%" height="100%" viewBox="0 0 410 410" version="1.1" xmlns="http://www.w3.org/2000/svg" xmlns:xlink="http://www.w3.org/1999/xlink" xml:space="preserve" xmlns:serif="http://www.serif.com/" style="fill-rule:evenodd;clip-rule:evenodd;stroke-linejoin:round;stroke-miterlimit:1.41421;">
    <path d="M204.7,0C317.8,0 409.4,91.7 409.4,204.7C409.4,317.8 317.7,409.4 204.7,409.4C91.7,409.4 0,317.8 0,204.7C0,91.7 91.7,0 204.7,0" style="fill:rgb(97,143,232);fill-rule:nonzero;"/>
    <path d="M253.1,156.3L301,204.4L301.2,204.6L301.2,204.4L349.3,252.5L349.3,156.3L301.2,108.3L253.1,156.3Z" style="fill:url(#_Linear1);fill-rule:nonzero;"/>
    <path d="M301.2,204.9L252.7,252.7L300.8,301.3L349.3,252.7L301.2,204.6L301.2,204.9Z" style="fill:url(#_Linear2);fill-rule:nonzero;"/>
    <path d="M60.2,252.7L108.2,301.3L108.2,301L156.3,252.7L108.2,204.6L60.2,252.7Z" style="fill:url(#_Linear3);fill-rule:nonzero;"/>
    <path d="M60.2,156.6L60.2,252.9L108.2,204.6L156.3,156.6L108.2,108.5L60.2,156.6Z" style="fill:url(#_Linear4);fill-rule:nonzero;"/>
    <path d="M301,108.3L204.6,108.3L108.2,108.3L204.6,204.6L253.1,156.3L301.2,108.3L301,108.3Z" style="fill:url(#_Linear5);fill-rule:nonzero;"/>
    <defs>
        <linearGradient id="_Linear1" x1="0" y1="0" x2="1" y2="0" gradientUnits="userSpaceOnUse" gradientTransform="matrix(-77.2788,-77.2787,77.2787,-77.2788,358.155,213.377)"><stop offset="0" style="stop-color:rgb(254,254,254);stop-opacity:1"/><stop offset="1" style="stop-color:rgb(226,225,224);stop-opacity:1"/></linearGradient>
        <linearGradient id="_Linear2" x1="0" y1="0" x2="1" y2="0" gradientUnits="userSpaceOnUse" gradientTransform="matrix(52.0321,-52.0321,52.0321,52.0321,274.81,278.907)"><stop offset="0" style="stop-color:rgb(254,254,254);stop-opacity:1"/><stop offset="1" style="stop-color:rgb(226,225,224);stop-opacity:1"/></linearGradient>
        <linearGradient id="_Linear3" x1="0" y1="0" x2="1" y2="0" gradientUnits="userSpaceOnUse" gradientTransform="matrix(-57.2447,-57.2447,57.2447,-57.2447,141.934,286.649)"><stop offset="0" style="stop-color:rgb(254,254,254);stop-opacity:1"/><stop offset="1" style="stop-color:rgb(226,225,224);stop-opacity:1"/></linearGradient>
        <linearGradient id="_Linear4" x1="0" y1="0" x2="1" y2="0" gradientUnits="userSpaceOnUse" gradientTransform="matrix(74.2363,-74.2362,74.2362,74.2363,55.4954,209.414)"><stop offset="0" style="stop-color:rgb(254,254,254);stop-opacity:1"/><stop offset="1" style="stop-color:rgb(226,225,224);stop-opacity:1"/></linearGradient>
        <linearGradient id="_Linear5" x1="0" y1="0" x2="1" y2="0" gradientUnits="userSpaceOnUse" gradientTransform="matrix(5.64153e-15,-92.1332,92.1332,5.64153e-15,204.729,201.907)"><stop offset="0" style="stop-color:rgb(226,225,224);stop-opacity:1"/><stop offset="1" style="stop-color:rgb(254,254,254);stop-opacity:1"/></linearGradient>
    </defs>
</svg>
